<?xml version="1.0" encoding="UTF-8" standalone="no"?>
<!-- Created with Inkscape (http://www.inkscape.org/) -->

<svg
   xmlns:dc="http://purl.org/dc/elements/1.1/"
   xmlns:cc="http://creativecommons.org/ns#"
   xmlns:rdf="http://www.w3.org/1999/02/22-rdf-syntax-ns#"
   xmlns:svg="http://www.w3.org/2000/svg"
   xmlns="http://www.w3.org/2000/svg"
   xmlns:sodipodi="http://sodipodi.sourceforge.net/DTD/sodipodi-0.dtd"
   xmlns:inkscape="http://www.inkscape.org/namespaces/inkscape"
   id="svg2"
   version="1.1"
   inkscape:version="0.91 r13725"
   xml:space="preserve"
   width="625"
   height="625"
   viewBox="0 0 625 625"
   sodipodi:docname="water-tap-glass.svg"><metadata
     id="metadata8"><rdf:RDF><cc:Work
         rdf:about=""><dc:format>image/svg+xml</dc:format><dc:type
           rdf:resource="http://purl.org/dc/dcmitype/StillImage" /><dc:title></dc:title><cc:license
           rdf:resource="http://creativecommons.org/publicdomain/zero/1.0/" /></cc:Work><cc:License
         rdf:about="http://creativecommons.org/publicdomain/zero/1.0/"><cc:permits
           rdf:resource="http://creativecommons.org/ns#Reproduction" /><cc:permits
           rdf:resource="http://creativecommons.org/ns#Distribution" /><cc:permits
           rdf:resource="http://creativecommons.org/ns#DerivativeWorks" /></cc:License></rdf:RDF></metadata><defs
     id="defs6"><clipPath
       clipPathUnits="userSpaceOnUse"
       id="clipPath16"><path
         d="M 0,500 500,500 500,0 0,0 0,500 Z"
         id="path18"
         inkscape:connector-curvature="0" /></clipPath></defs><sodipodi:namedview
     pagecolor="#ffffff"
     bordercolor="#666666"
     borderopacity="1"
     objecttolerance="10"
     gridtolerance="10"
     guidetolerance="10"
     inkscape:pageopacity="0"
     inkscape:pageshadow="2"
     inkscape:window-width="1916"
     inkscape:window-height="1035"
     id="namedview4"
     showgrid="false"
     inkscape:zoom="0.70910507"
     inkscape:cx="-145.65678"
     inkscape:cy="312.5"
     inkscape:window-x="4"
     inkscape:window-y="1"
     inkscape:window-maximized="1"
     inkscape:current-layer="g14" /><g
     id="g10"
     inkscape:groupmode="layer"
     inkscape:label="water-tap-glass-publicdomainvectors.org"
     transform="matrix(1.25,0,0,-1.25,0,625)"><g
       id="g12"><g
         id="g14"
         clip-path="url(#clipPath16)"><path
           d="m 189.73837,-62.139831 c 0,0.517 -0.074,0.964 -0.228,1.329 -0.148,0.37 -0.357,0.656 -0.627,0.859 -0.267,0.196 -0.563,0.296 -0.889,0.296 -0.516,0 -0.953,-0.218 -1.308,-0.64 -0.355,-0.428 -0.533,-1.051 -0.533,-1.878 0,-0.779 0.178,-1.385 0.527,-1.812 0.356,-0.434 0.794,-0.652 1.314,-0.652 0.31,0 0.601,0.094 0.867,0.285 0.262,0.189 0.475,0.471 0.637,0.845 0.162,0.381 0.24,0.834 0.24,1.368 m -3.672,2.849 0,-0.235 c 0.351,0.45 0.716,0.787 1.096,0.997 0.38,0.214 0.814,0.323 1.295,0.323 0.575,0 1.106,-0.158 1.591,-0.468 0.484,-0.31 0.867,-0.763 1.15,-1.361 0.281,-0.598 0.419,-1.303 0.419,-2.121 0,-0.6 -0.078,-1.159 -0.241,-1.656 -0.162,-0.504 -0.386,-0.93 -0.668,-1.27 -0.284,-0.341 -0.622,-0.606 -1.006,-0.787 -0.389,-0.188 -0.806,-0.278 -1.245,-0.278 -0.539,0 -0.989,0.111 -1.352,0.336 -0.367,0.225 -0.711,0.552 -1.039,0.987 l 0,-2.934 c 0,-0.861 -0.3,-1.289 -0.9,-1.289 -0.352,0 -0.587,0.109 -0.698,0.33 -0.116,0.223 -0.172,0.548 -0.172,0.972 l 0,8.442 c 0,0.372 0.075,0.65 0.232,0.834 0.159,0.182 0.37,0.276 0.638,0.276 0.266,0 0.482,-0.094 0.648,-0.285 0.167,-0.19 0.252,-0.462 0.252,-0.813"
           style="fill:#9c8a83;fill-opacity:1;fill-rule:nonzero;stroke:none"
           id="path20"
           inkscape:connector-curvature="0" /><path
           d="m 197.99237,-65.039831 0,0.247 c -0.225,-0.296 -0.461,-0.543 -0.709,-0.743 -0.246,-0.204 -0.516,-0.352 -0.808,-0.448 -0.296,-0.097 -0.629,-0.147 -1.004,-0.147 -0.45,0 -0.857,0.098 -1.217,0.293 -0.36,0.195 -0.639,0.466 -0.833,0.808 -0.237,0.416 -0.351,1.014 -0.351,1.789 l 0,3.875 c 0,0.39 0.085,0.685 0.255,0.876 0.169,0.194 0.392,0.291 0.671,0.291 0.284,0 0.512,-0.097 0.687,-0.295 0.174,-0.197 0.26,-0.487 0.26,-0.872 l 0,-3.131 c 0,-0.451 0.036,-0.832 0.107,-1.138 0.076,-0.309 0.208,-0.55 0.399,-0.727 0.187,-0.172 0.446,-0.258 0.769,-0.258 0.32,0 0.616,0.097 0.893,0.293 0.282,0.194 0.486,0.449 0.613,0.764 0.105,0.277 0.157,0.883 0.157,1.819 l 0,2.378 c 0,0.385 0.087,0.675 0.263,0.872 0.172,0.198 0.396,0.295 0.676,0.295 0.28,0 0.504,-0.097 0.673,-0.291 0.167,-0.191 0.251,-0.486 0.251,-0.876 l 0,-5.664 c 0,-0.372 -0.077,-0.652 -0.241,-0.836 -0.16,-0.189 -0.37,-0.279 -0.627,-0.279 -0.255,0 -0.466,0.099 -0.634,0.286 -0.167,0.198 -0.25,0.465 -0.25,0.819"
           style="fill:#9c8a83;fill-opacity:1;fill-rule:nonzero;stroke:none"
           id="path22"
           inkscape:connector-curvature="0" /><path
           d="m 203.42737,-62.218831 c 0,-0.777 0.169,-1.372 0.508,-1.792 0.343,-0.416 0.79,-0.627 1.345,-0.627 0.471,0 0.875,0.214 1.219,0.641 0.342,0.429 0.513,1.038 0.513,1.836 0,0.522 -0.072,0.962 -0.214,1.334 -0.144,0.375 -0.346,0.662 -0.604,0.863 -0.265,0.203 -0.565,0.308 -0.914,0.308 -0.36,0 -0.673,-0.105 -0.954,-0.308 -0.282,-0.201 -0.499,-0.495 -0.66,-0.882 -0.161,-0.381 -0.239,-0.837 -0.239,-1.373 m -0.09,5.813 0,-2.989 c 0.349,0.386 0.71,0.675 1.075,0.883 0.367,0.201 0.822,0.306 1.36,0.306 0.623,0 1.168,-0.158 1.637,-0.462 0.468,-0.313 0.834,-0.756 1.092,-1.341 0.26,-0.585 0.388,-1.278 0.388,-2.08 0,-0.594 -0.071,-1.137 -0.214,-1.635 -0.145,-0.49 -0.352,-0.917 -0.628,-1.284 -0.277,-0.361 -0.61,-0.639 -0.999,-0.845 -0.394,-0.193 -0.825,-0.294 -1.296,-0.294 -0.285,0 -0.559,0.036 -0.814,0.107 -0.253,0.073 -0.472,0.167 -0.646,0.286 -0.181,0.111 -0.333,0.236 -0.459,0.357 -0.125,0.126 -0.29,0.311 -0.496,0.559 l 0,-0.192 c 0,-0.368 -0.086,-0.647 -0.255,-0.836 -0.167,-0.189 -0.386,-0.281 -0.644,-0.281 -0.268,0 -0.477,0.092 -0.637,0.281 -0.157,0.194 -0.236,0.469 -0.236,0.836 l 0,8.539 c 0,0.394 0.077,0.695 0.232,0.897 0.153,0.203 0.365,0.305 0.641,0.305 0.287,0 0.509,-0.097 0.663,-0.292 0.157,-0.192 0.236,-0.465 0.236,-0.825"
           style="fill:#9c8a83;fill-opacity:1;fill-rule:nonzero;stroke:none"
           id="path24"
           inkscape:connector-curvature="0" /><path
           d="m 210.21137,-64.956831 0,8.478 c 0,0.394 0.084,0.689 0.248,0.89 0.17,0.198 0.395,0.3 0.679,0.3 0.283,0 0.511,-0.098 0.686,-0.297 0.171,-0.198 0.261,-0.497 0.261,-0.893 l 0,-8.478 c 0,-0.397 -0.09,-0.696 -0.266,-0.896 -0.175,-0.193 -0.403,-0.294 -0.681,-0.294 -0.275,0 -0.496,0.104 -0.668,0.309 -0.172,0.205 -0.259,0.498 -0.259,0.881"
           style="fill:#9c8a83;fill-opacity:1;fill-rule:nonzero;stroke:none"
           id="path26"
           inkscape:connector-curvature="0" /><path
           d="m 215.89237,-59.309831 0,-5.647 c 0,-0.394 -0.091,-0.69 -0.265,-0.89 -0.18,-0.196 -0.408,-0.3 -0.68,-0.3 -0.276,0 -0.499,0.104 -0.67,0.307 -0.17,0.207 -0.258,0.5 -0.258,0.883 l 0,5.591 c 0,0.385 0.088,0.675 0.258,0.872 0.171,0.198 0.394,0.295 0.67,0.295 0.272,0 0.5,-0.097 0.68,-0.295 0.174,-0.197 0.265,-0.467 0.265,-0.816 m -0.927,2.023 c -0.26,0 -0.481,0.083 -0.671,0.254 -0.181,0.166 -0.275,0.404 -0.275,0.711 0,0.276 0.094,0.501 0.286,0.684 0.189,0.18 0.409,0.264 0.66,0.264 0.243,0 0.459,-0.079 0.646,-0.241 0.187,-0.163 0.281,-0.401 0.281,-0.707 0,-0.303 -0.092,-0.539 -0.275,-0.705 -0.183,-0.17 -0.398,-0.26 -0.652,-0.26"
           style="fill:#9c8a83;fill-opacity:1;fill-rule:nonzero;stroke:none"
           id="path28"
           inkscape:connector-curvature="0" /><path
           d="m 224.53837,-63.725831 c 0,-0.241 -0.068,-0.504 -0.207,-0.781 -0.142,-0.277 -0.353,-0.538 -0.641,-0.789 -0.284,-0.25 -0.645,-0.452 -1.08,-0.604 -0.434,-0.157 -0.924,-0.231 -1.467,-0.231 -1.159,0 -2.061,0.352 -2.712,1.055 -0.648,0.706 -0.974,1.647 -0.974,2.832 0,0.801 0.148,1.513 0.444,2.126 0.297,0.614 0.731,1.093 1.291,1.427 0.561,0.34 1.237,0.508 2.017,0.508 0.486,0 0.932,-0.076 1.337,-0.222 0.404,-0.149 0.747,-0.341 1.028,-0.572 0.282,-0.235 0.496,-0.485 0.646,-0.748 0.15,-0.266 0.222,-0.514 0.222,-0.743 0,-0.231 -0.085,-0.429 -0.25,-0.592 -0.168,-0.164 -0.368,-0.244 -0.607,-0.244 -0.157,0 -0.284,0.045 -0.39,0.128 -0.1,0.081 -0.216,0.212 -0.345,0.402 -0.228,0.363 -0.469,0.636 -0.718,0.822 -0.25,0.179 -0.566,0.272 -0.947,0.272 -0.557,0 -1.003,-0.23 -1.341,-0.68 -0.339,-0.454 -0.507,-1.07 -0.507,-1.853 0,-0.365 0.044,-0.708 0.132,-1.014 0.086,-0.309 0.212,-0.571 0.375,-0.789 0.166,-0.218 0.363,-0.382 0.597,-0.493 0.233,-0.115 0.49,-0.17 0.768,-0.17 0.377,0 0.697,0.09 0.965,0.271 0.268,0.183 0.505,0.46 0.71,0.829 0.115,0.225 0.238,0.395 0.371,0.521 0.135,0.125 0.297,0.184 0.489,0.184 0.228,0 0.418,-0.088 0.57,-0.27 0.148,-0.185 0.224,-0.377 0.224,-0.582"
           style="fill:#9c8a83;fill-opacity:1;fill-rule:nonzero;stroke:none"
           id="path30"
           inkscape:connector-curvature="0" /><path
           d="m 227.62537,-62.160831 c 0,-0.53 0.079,-0.978 0.235,-1.353 0.16,-0.373 0.372,-0.65 0.647,-0.839 0.276,-0.191 0.577,-0.285 0.898,-0.285 0.33,0 0.631,0.092 0.903,0.268 0.274,0.179 0.488,0.456 0.653,0.826 0.163,0.368 0.243,0.832 0.243,1.383 0,0.524 -0.08,0.968 -0.243,1.345 -0.165,0.375 -0.383,0.661 -0.659,0.864 -0.278,0.196 -0.579,0.296 -0.908,0.296 -0.343,0 -0.648,-0.105 -0.92,-0.308 -0.267,-0.201 -0.479,-0.495 -0.627,-0.875 -0.147,-0.381 -0.222,-0.817 -0.222,-1.322 m 3.682,-2.869 0,0.192 c -0.252,-0.301 -0.5,-0.545 -0.748,-0.731 -0.24,-0.191 -0.508,-0.334 -0.793,-0.432 -0.285,-0.095 -0.598,-0.146 -0.935,-0.146 -0.448,0 -0.866,0.101 -1.247,0.294 -0.38,0.206 -0.71,0.485 -0.99,0.852 -0.278,0.369 -0.49,0.799 -0.635,1.299 -0.146,0.495 -0.217,1.031 -0.217,1.613 0,1.218 0.287,2.175 0.859,2.858 0.573,0.683 1.324,1.025 2.256,1.025 0.54,0 0.996,-0.099 1.366,-0.296 0.369,-0.191 0.732,-0.489 1.084,-0.893 l 0,2.888 c 0,0.401 0.075,0.704 0.23,0.909 0.152,0.207 0.369,0.309 0.654,0.309 0.283,0 0.501,-0.096 0.656,-0.282 0.153,-0.188 0.232,-0.466 0.232,-0.835 l 0,-8.624 c 0,-0.372 -0.084,-0.652 -0.249,-0.836 -0.165,-0.189 -0.376,-0.281 -0.639,-0.281 -0.253,0 -0.468,0.097 -0.636,0.288 -0.165,0.194 -0.248,0.468 -0.248,0.829"
           style="fill:#9c8a83;fill-opacity:1;fill-rule:nonzero;stroke:none"
           id="path32"
           inkscape:connector-curvature="0" /><path
           d="m 240.09137,-62.176831 c 0,0.795 -0.171,1.418 -0.505,1.861 -0.337,0.442 -0.79,0.666 -1.356,0.666 -0.368,0 -0.688,-0.099 -0.968,-0.298 -0.279,-0.201 -0.493,-0.493 -0.644,-0.879 -0.151,-0.382 -0.227,-0.832 -0.227,-1.35 0,-0.511 0.076,-0.956 0.223,-1.337 0.148,-0.382 0.362,-0.675 0.64,-0.878 0.275,-0.202 0.603,-0.302 0.976,-0.302 0.566,0 1.019,0.222 1.356,0.667 0.334,0.446 0.505,1.065 0.505,1.85 m 1.88,0 c 0,-0.579 -0.089,-1.115 -0.261,-1.611 -0.174,-0.489 -0.425,-0.913 -0.753,-1.267 -0.332,-0.354 -0.725,-0.617 -1.182,-0.811 -0.457,-0.189 -0.976,-0.281 -1.545,-0.281 -0.565,0 -1.077,0.092 -1.528,0.286 -0.453,0.191 -0.848,0.464 -1.18,0.821 -0.33,0.356 -0.58,0.773 -0.754,1.257 -0.171,0.489 -0.257,1.021 -0.257,1.61 0,0.592 0.088,1.133 0.26,1.623 0.174,0.495 0.422,0.911 0.748,1.263 0.325,0.347 0.717,0.616 1.183,0.803 0.463,0.19 0.969,0.285 1.528,0.285 0.568,0 1.083,-0.095 1.545,-0.287 0.46,-0.19 0.857,-0.465 1.185,-0.817 0.332,-0.353 0.582,-0.776 0.75,-1.264 0.175,-0.485 0.261,-1.022 0.261,-1.61"
           style="fill:#9c8a83;fill-opacity:1;fill-rule:nonzero;stroke:none"
           id="path34"
           inkscape:connector-curvature="0" /><path
           d="m 249.88237,-60.560831 c -0.14,-0.331 -0.207,-0.914 -0.207,-1.754 l 0,-2.597 c 0,-0.41 -0.088,-0.721 -0.268,-0.926 -0.177,-0.205 -0.416,-0.309 -0.709,-0.309 -0.281,0 -0.51,0.104 -0.685,0.309 -0.177,0.205 -0.263,0.516 -0.263,0.926 l 0,3.117 c 0,0.491 -0.018,0.872 -0.05,1.147 -0.033,0.27 -0.119,0.494 -0.261,0.669 -0.139,0.176 -0.365,0.262 -0.67,0.262 -0.613,0 -1.016,-0.22 -1.211,-0.661 -0.197,-0.438 -0.289,-1.069 -0.289,-1.892 l 0,-2.642 c 0,-0.409 -0.091,-0.717 -0.264,-0.92 -0.179,-0.211 -0.41,-0.315 -0.695,-0.315 -0.287,0 -0.521,0.104 -0.701,0.315 -0.181,0.203 -0.267,0.511 -0.267,0.919 l 0,5.593 c 0,0.369 0.077,0.649 0.238,0.839 0.165,0.19 0.378,0.288 0.645,0.288 0.256,0 0.471,-0.09 0.64,-0.269 0.172,-0.178 0.258,-0.424 0.258,-0.74 l 0,-0.186 c 0.323,0.407 0.672,0.705 1.041,0.894 0.37,0.192 0.787,0.288 1.236,0.288 0.47,0 0.873,-0.099 1.211,-0.296 0.34,-0.195 0.619,-0.491 0.836,-0.886 0.317,0.397 0.655,0.697 1.018,0.891 0.362,0.195 0.761,0.291 1.199,0.291 0.516,0 0.956,-0.105 1.324,-0.317 0.371,-0.211 0.647,-0.51 0.831,-0.901 0.161,-0.355 0.24,-0.909 0.24,-1.671 l 0,-3.817 c 0,-0.41 -0.089,-0.721 -0.265,-0.926 -0.182,-0.205 -0.415,-0.309 -0.709,-0.309 -0.284,0 -0.515,0.104 -0.695,0.315 -0.183,0.203 -0.273,0.511 -0.273,0.92 l 0,3.289 c 0,0.421 -0.017,0.755 -0.05,1.01 -0.035,0.255 -0.128,0.464 -0.28,0.637 -0.15,0.173 -0.381,0.259 -0.684,0.259 -0.247,0 -0.482,-0.077 -0.701,-0.227 -0.226,-0.154 -0.394,-0.359 -0.52,-0.617"
           style="fill:#9c8a83;fill-opacity:1;fill-rule:nonzero;stroke:none"
           id="path36"
           inkscape:connector-curvature="0" /><path
           d="m 260.49137,-62.212831 c -0.276,-0.109 -0.676,-0.216 -1.199,-0.335 -0.524,-0.116 -0.887,-0.202 -1.088,-0.258 -0.202,-0.057 -0.395,-0.162 -0.575,-0.321 -0.185,-0.164 -0.277,-0.387 -0.277,-0.674 0,-0.299 0.108,-0.548 0.321,-0.756 0.217,-0.211 0.499,-0.312 0.847,-0.312 0.37,0 0.714,0.085 1.025,0.255 0.314,0.169 0.546,0.389 0.69,0.655 0.169,0.298 0.256,0.783 0.256,1.467 l 0,0.279 z m 0.122,-2.832 c -0.454,-0.369 -0.892,-0.643 -1.315,-0.824 -0.422,-0.188 -0.899,-0.278 -1.422,-0.278 -0.484,0 -0.901,0.101 -1.268,0.294 -0.366,0.2 -0.644,0.47 -0.842,0.813 -0.194,0.338 -0.295,0.702 -0.295,1.1 0,0.535 0.167,0.988 0.49,1.366 0.323,0.376 0.768,0.629 1.335,0.76 0.119,0.029 0.416,0.091 0.884,0.191 0.477,0.102 0.876,0.193 1.217,0.276 0.333,0.081 0.701,0.185 1.094,0.302 -0.024,0.518 -0.123,0.896 -0.298,1.143 -0.179,0.239 -0.546,0.356 -1.096,0.356 -0.478,0 -0.834,-0.068 -1.078,-0.205 -0.238,-0.138 -0.445,-0.347 -0.615,-0.627 -0.174,-0.276 -0.292,-0.459 -0.363,-0.546 -0.073,-0.091 -0.226,-0.13 -0.455,-0.13 -0.213,0 -0.395,0.069 -0.546,0.208 -0.155,0.143 -0.231,0.319 -0.231,0.543 0,0.343 0.117,0.68 0.349,1 0.233,0.326 0.598,0.592 1.091,0.806 0.494,0.21 1.111,0.314 1.848,0.314 0.821,0 1.469,-0.104 1.944,-0.307 0.47,-0.201 0.799,-0.519 0.996,-0.962 0.195,-0.437 0.292,-1.022 0.292,-1.747 0,-0.457 0,-0.849 -0.003,-1.167 -0.004,-0.322 -0.006,-0.676 -0.011,-1.069 0,-0.366 0.059,-0.75 0.177,-1.147 0.113,-0.399 0.172,-0.657 0.172,-0.769 0,-0.201 -0.092,-0.385 -0.272,-0.549 -0.177,-0.164 -0.384,-0.247 -0.611,-0.247 -0.195,0 -0.381,0.092 -0.572,0.281 -0.187,0.189 -0.385,0.464 -0.596,0.821"
           style="fill:#9c8a83;fill-opacity:1;fill-rule:nonzero;stroke:none"
           id="path38"
           inkscape:connector-curvature="0" /><path
           d="m 266.10537,-59.309831 0,-5.647 c 0,-0.394 -0.09,-0.69 -0.266,-0.89 -0.178,-0.196 -0.403,-0.3 -0.678,-0.3 -0.274,0 -0.5,0.104 -0.669,0.307 -0.174,0.207 -0.26,0.5 -0.26,0.883 l 0,5.591 c 0,0.385 0.086,0.675 0.26,0.872 0.169,0.198 0.395,0.295 0.669,0.295 0.275,0 0.5,-0.097 0.678,-0.295 0.176,-0.197 0.266,-0.467 0.266,-0.816 m -0.926,2.023 c -0.258,0 -0.48,0.083 -0.666,0.254 -0.185,0.166 -0.281,0.404 -0.281,0.711 0,0.276 0.097,0.501 0.288,0.684 0.188,0.18 0.411,0.264 0.659,0.264 0.243,0 0.461,-0.079 0.649,-0.241 0.184,-0.163 0.277,-0.401 0.277,-0.707 0,-0.303 -0.09,-0.539 -0.274,-0.705 -0.183,-0.17 -0.4,-0.26 -0.652,-0.26"
           style="fill:#9c8a83;fill-opacity:1;fill-rule:nonzero;stroke:none"
           id="path40"
           inkscape:connector-curvature="0" /><path
           d="m 269.74637,-59.280831 0,-0.234 c 0.327,0.452 0.687,0.786 1.075,0.998 0.392,0.212 0.842,0.318 1.351,0.318 0.492,0 0.935,-0.112 1.327,-0.338 0.385,-0.223 0.678,-0.539 0.868,-0.947 0.125,-0.241 0.202,-0.502 0.242,-0.777 0.034,-0.274 0.055,-0.629 0.055,-1.06 l 0,-3.636 c 0,-0.394 -0.089,-0.69 -0.259,-0.89 -0.173,-0.196 -0.396,-0.3 -0.669,-0.3 -0.278,0 -0.506,0.104 -0.673,0.309 -0.176,0.205 -0.266,0.498 -0.266,0.881 l 0,3.255 c 0,0.649 -0.084,1.141 -0.255,1.481 -0.174,0.341 -0.517,0.515 -1.03,0.515 -0.332,0 -0.637,-0.107 -0.91,-0.315 -0.274,-0.205 -0.476,-0.492 -0.603,-0.855 -0.092,-0.292 -0.14,-0.833 -0.14,-1.635 l 0,-2.446 c 0,-0.397 -0.087,-0.696 -0.263,-0.896 -0.177,-0.193 -0.405,-0.294 -0.683,-0.294 -0.268,0 -0.491,0.104 -0.664,0.307 -0.177,0.207 -0.262,0.5 -0.262,0.883 l 0,5.647 c 0,0.374 0.077,0.649 0.234,0.835 0.152,0.184 0.37,0.276 0.639,0.276 0.161,0 0.312,-0.044 0.443,-0.121 0.137,-0.08 0.239,-0.206 0.32,-0.363 0.077,-0.165 0.123,-0.363 0.123,-0.598"
           style="fill:#9c8a83;fill-opacity:1;fill-rule:nonzero;stroke:none"
           id="path42"
           inkscape:connector-curvature="0" /><path
           d="m 277.66937,-59.414831 1.514,-4.44 1.633,4.633 c 0.131,0.374 0.256,0.634 0.381,0.791 0.125,0.154 0.31,0.232 0.56,0.232 0.238,0 0.439,-0.084 0.611,-0.253 0.164,-0.166 0.247,-0.355 0.247,-0.581 0,-0.085 -0.016,-0.183 -0.046,-0.294 -0.027,-0.118 -0.06,-0.225 -0.101,-0.328 -0.039,-0.096 -0.08,-0.214 -0.134,-0.34 l -1.798,-4.656 c -0.049,-0.133 -0.116,-0.304 -0.195,-0.51 -0.08,-0.204 -0.172,-0.375 -0.268,-0.527 -0.1,-0.144 -0.22,-0.254 -0.363,-0.336 -0.147,-0.082 -0.321,-0.123 -0.527,-0.123 -0.265,0 -0.476,0.063 -0.636,0.187 -0.157,0.128 -0.275,0.265 -0.349,0.419 -0.074,0.147 -0.204,0.447 -0.381,0.89 l -1.784,4.605 c -0.042,0.112 -0.087,0.227 -0.131,0.343 -0.041,0.114 -0.074,0.229 -0.106,0.35 -0.03,0.122 -0.046,0.225 -0.046,0.307 0,0.135 0.039,0.268 0.118,0.399 0.078,0.132 0.186,0.241 0.322,0.322 0.14,0.082 0.285,0.126 0.448,0.126 0.308,0 0.523,-0.092 0.64,-0.282 0.117,-0.184 0.249,-0.496 0.391,-0.934"
           style="fill:#9c8a83;fill-opacity:1;fill-rule:nonzero;stroke:none"
           id="path44"
           inkscape:connector-curvature="0" /><path
           d="m 285.33137,-61.536831 3.397,0 c -0.043,0.665 -0.216,1.165 -0.518,1.495 -0.301,0.33 -0.695,0.496 -1.186,0.496 -0.462,0 -0.847,-0.168 -1.146,-0.503 -0.299,-0.334 -0.48,-0.832 -0.547,-1.488 m 3.665,-1.114 -3.665,0 c 0.002,-0.445 0.09,-0.836 0.255,-1.177 0.169,-0.336 0.39,-0.592 0.669,-0.766 0.275,-0.174 0.582,-0.257 0.916,-0.257 0.223,0 0.43,0.027 0.613,0.081 0.184,0.058 0.365,0.143 0.541,0.258 0.17,0.118 0.329,0.239 0.478,0.379 0.145,0.133 0.341,0.31 0.569,0.542 0.098,0.09 0.236,0.131 0.411,0.131 0.197,0 0.35,-0.054 0.47,-0.167 0.118,-0.11 0.174,-0.263 0.174,-0.463 0,-0.177 -0.065,-0.384 -0.199,-0.622 -0.129,-0.233 -0.327,-0.461 -0.6,-0.682 -0.268,-0.216 -0.604,-0.392 -1.009,-0.54 -0.401,-0.142 -0.866,-0.213 -1.395,-0.213 -1.203,0 -2.139,0.361 -2.805,1.073 -0.668,0.72 -1,1.689 -1,2.913 0,0.585 0.086,1.116 0.247,1.61 0.164,0.496 0.403,0.918 0.72,1.27 0.316,0.356 0.702,0.628 1.166,0.814 0.465,0.19 0.974,0.284 1.539,0.284 0.726,0 1.356,-0.161 1.88,-0.485 0.526,-0.323 0.917,-0.736 1.176,-1.246 0.262,-0.513 0.392,-1.032 0.392,-1.566 0,-0.488 -0.13,-0.806 -0.403,-0.951 -0.272,-0.147 -0.651,-0.22 -1.14,-0.22"
           style="fill:#9c8a83;fill-opacity:1;fill-rule:nonzero;stroke:none"
           id="path46"
           inkscape:connector-curvature="0" /><path
           d="m 298.83937,-63.725831 c 0,-0.241 -0.07,-0.504 -0.213,-0.781 -0.141,-0.277 -0.348,-0.538 -0.637,-0.789 -0.285,-0.25 -0.648,-0.452 -1.084,-0.604 -0.431,-0.157 -0.924,-0.231 -1.464,-0.231 -1.161,0 -2.063,0.352 -2.711,1.055 -0.649,0.706 -0.976,1.647 -0.976,2.832 0,0.801 0.147,1.513 0.448,2.126 0.297,0.614 0.724,1.093 1.289,1.427 0.559,0.34 1.235,0.508 2.018,0.508 0.484,0 0.928,-0.076 1.336,-0.222 0.404,-0.149 0.744,-0.341 1.029,-0.572 0.281,-0.235 0.494,-0.485 0.645,-0.748 0.148,-0.266 0.222,-0.514 0.222,-0.743 0,-0.231 -0.083,-0.429 -0.256,-0.592 -0.164,-0.164 -0.365,-0.244 -0.603,-0.244 -0.156,0 -0.285,0.045 -0.387,0.128 -0.103,0.081 -0.219,0.212 -0.348,0.402 -0.228,0.363 -0.466,0.636 -0.715,0.822 -0.251,0.179 -0.567,0.272 -0.952,0.272 -0.551,0 -0.998,-0.23 -1.336,-0.68 -0.342,-0.454 -0.51,-1.07 -0.51,-1.853 0,-0.365 0.047,-0.708 0.131,-1.014 0.086,-0.309 0.213,-0.571 0.379,-0.789 0.164,-0.218 0.364,-0.382 0.596,-0.493 0.231,-0.115 0.488,-0.17 0.769,-0.17 0.374,0 0.697,0.09 0.965,0.271 0.265,0.183 0.506,0.46 0.711,0.829 0.115,0.225 0.236,0.395 0.371,0.521 0.131,0.125 0.291,0.184 0.486,0.184 0.227,0 0.418,-0.088 0.564,-0.27 0.155,-0.185 0.233,-0.377 0.233,-0.582"
           style="fill:#9c8a83;fill-opacity:1;fill-rule:nonzero;stroke:none"
           id="path48"
           inkscape:connector-curvature="0" /><path
           d="m 300.57837,-58.363831 0.206,0 0,1.176 c 0,0.313 0.008,0.563 0.026,0.74 0.014,0.18 0.056,0.33 0.132,0.462 0.073,0.131 0.176,0.242 0.317,0.326 0.136,0.082 0.289,0.122 0.459,0.122 0.236,0 0.451,-0.092 0.642,-0.277 0.125,-0.126 0.209,-0.275 0.245,-0.453 0.035,-0.18 0.048,-0.437 0.048,-0.765 l 0,-1.331 0.69,0 c 0.265,0 0.469,-0.065 0.607,-0.198 0.143,-0.131 0.211,-0.297 0.211,-0.503 0,-0.262 -0.099,-0.45 -0.301,-0.553 -0.199,-0.102 -0.484,-0.155 -0.853,-0.155 l -0.354,0 0,-3.601 c 0,-0.307 0.013,-0.541 0.032,-0.709 0.024,-0.165 0.082,-0.299 0.17,-0.399 0.085,-0.103 0.23,-0.156 0.434,-0.156 0.108,0 0.257,0.019 0.446,0.061 0.184,0.041 0.332,0.061 0.438,0.061 0.15,0 0.291,-0.066 0.41,-0.186 0.119,-0.131 0.18,-0.285 0.18,-0.471 0,-0.315 -0.16,-0.557 -0.492,-0.723 -0.333,-0.168 -0.805,-0.251 -1.42,-0.251 -0.586,0 -1.032,0.104 -1.334,0.309 -0.3,0.205 -0.5,0.487 -0.59,0.854 -0.098,0.364 -0.143,0.847 -0.143,1.453 l 0,3.758 -0.249,0 c -0.264,0 -0.472,0.067 -0.614,0.201 -0.144,0.133 -0.213,0.301 -0.213,0.507 0,0.206 0.072,0.372 0.221,0.503 0.15,0.133 0.363,0.198 0.649,0.198"
           style="fill:#9c8a83;fill-opacity:1;fill-rule:nonzero;stroke:none"
           id="path50"
           inkscape:connector-curvature="0" /><path
           d="m 310.57937,-62.176831 c 0,0.795 -0.17,1.418 -0.504,1.861 -0.34,0.442 -0.787,0.666 -1.357,0.666 -0.367,0 -0.688,-0.099 -0.965,-0.298 -0.281,-0.201 -0.496,-0.493 -0.647,-0.879 -0.15,-0.382 -0.226,-0.832 -0.226,-1.35 0,-0.511 0.076,-0.956 0.225,-1.337 0.148,-0.382 0.359,-0.675 0.636,-0.878 0.276,-0.202 0.602,-0.302 0.977,-0.302 0.57,0 1.017,0.222 1.357,0.667 0.334,0.446 0.504,1.065 0.504,1.85 m 1.881,0 c 0,-0.579 -0.086,-1.115 -0.264,-1.611 -0.172,-0.489 -0.425,-0.913 -0.752,-1.267 -0.33,-0.354 -0.724,-0.617 -1.179,-0.811 -0.461,-0.189 -0.973,-0.281 -1.547,-0.281 -0.569,0 -1.08,0.092 -1.53,0.286 -0.453,0.191 -0.847,0.464 -1.177,0.821 -0.33,0.356 -0.582,0.773 -0.752,1.257 -0.17,0.489 -0.254,1.021 -0.254,1.61 0,0.592 0.084,1.133 0.254,1.623 0.178,0.495 0.424,0.911 0.75,1.263 0.326,0.347 0.719,0.616 1.179,0.803 0.467,0.19 0.975,0.285 1.53,0.285 0.57,0 1.084,-0.095 1.547,-0.287 0.461,-0.19 0.855,-0.465 1.185,-0.817 0.324,-0.353 0.582,-0.776 0.752,-1.264 0.172,-0.485 0.258,-1.022 0.258,-1.61"
           style="fill:#9c8a83;fill-opacity:1;fill-rule:nonzero;stroke:none"
           id="path52"
           inkscape:connector-curvature="0" /><path
           d="m 315.79637,-63.328831 0,-1.628 c 0,-0.397 -0.09,-0.696 -0.268,-0.896 -0.179,-0.193 -0.404,-0.294 -0.681,-0.294 -0.266,0 -0.492,0.104 -0.664,0.3 -0.172,0.2 -0.26,0.496 -0.26,0.89 l 0,5.441 c 0,0.879 0.303,1.317 0.912,1.317 0.309,0 0.533,-0.103 0.674,-0.306 0.135,-0.206 0.207,-0.51 0.224,-0.91 0.223,0.4 0.455,0.704 0.694,0.91 0.234,0.203 0.547,0.306 0.937,0.306 0.399,0 0.778,-0.103 1.151,-0.306 0.369,-0.206 0.556,-0.479 0.556,-0.818 0,-0.237 -0.082,-0.438 -0.24,-0.591 -0.154,-0.154 -0.326,-0.235 -0.512,-0.235 -0.066,0 -0.234,0.046 -0.496,0.136 -0.265,0.087 -0.496,0.133 -0.699,0.133 -0.271,0 -0.496,-0.072 -0.668,-0.227 -0.176,-0.152 -0.31,-0.372 -0.406,-0.668 -0.096,-0.3 -0.166,-0.65 -0.199,-1.059 -0.036,-0.406 -0.055,-0.903 -0.055,-1.495"
           style="fill:#9c8a83;fill-opacity:1;fill-rule:nonzero;stroke:none"
           id="path54"
           inkscape:connector-curvature="0" /><path
           d="m 325.77437,-63.591831 c 0,-0.541 -0.125,-1.002 -0.38,-1.387 -0.252,-0.386 -0.623,-0.674 -1.116,-0.874 -0.492,-0.193 -1.09,-0.294 -1.797,-0.294 -0.668,0 -1.246,0.107 -1.728,0.324 -0.481,0.213 -0.836,0.481 -1.063,0.803 -0.232,0.319 -0.349,0.644 -0.349,0.967 0,0.215 0.076,0.399 0.224,0.552 0.147,0.156 0.332,0.228 0.553,0.228 0.199,0 0.352,-0.051 0.457,-0.148 0.106,-0.106 0.203,-0.243 0.303,-0.426 0.191,-0.348 0.42,-0.608 0.691,-0.78 0.264,-0.175 0.629,-0.26 1.094,-0.26 0.375,0 0.682,0.09 0.924,0.263 0.236,0.174 0.361,0.373 0.361,0.597 0,0.346 -0.127,0.598 -0.375,0.753 -0.252,0.162 -0.66,0.312 -1.232,0.453 -0.645,0.168 -1.172,0.343 -1.576,0.526 -0.405,0.185 -0.733,0.428 -0.973,0.729 -0.242,0.296 -0.365,0.669 -0.365,1.109 0,0.393 0.113,0.763 0.338,1.11 0.222,0.35 0.556,0.627 0.994,0.835 0.435,0.21 0.961,0.313 1.582,0.313 0.482,0 0.918,-0.053 1.306,-0.158 0.387,-0.105 0.715,-0.247 0.969,-0.421 0.258,-0.177 0.457,-0.374 0.59,-0.588 0.137,-0.215 0.203,-0.426 0.203,-0.629 0,-0.226 -0.07,-0.406 -0.217,-0.555 -0.144,-0.139 -0.351,-0.21 -0.613,-0.21 -0.195,0 -0.357,0.057 -0.494,0.174 -0.133,0.112 -0.289,0.283 -0.461,0.509 -0.143,0.191 -0.309,0.346 -0.502,0.459 -0.193,0.114 -0.453,0.173 -0.781,0.173 -0.34,0 -0.623,-0.075 -0.844,-0.226 -0.225,-0.15 -0.338,-0.338 -0.338,-0.563 0,-0.207 0.084,-0.374 0.246,-0.506 0.166,-0.131 0.387,-0.239 0.668,-0.327 0.28,-0.085 0.662,-0.192 1.153,-0.315 0.584,-0.148 1.056,-0.322 1.423,-0.529 0.37,-0.204 0.649,-0.447 0.838,-0.726 0.192,-0.282 0.287,-0.601 0.287,-0.955"
           style="fill:#9c8a83;fill-opacity:1;fill-rule:nonzero;stroke:none"
           id="path56"
           inkscape:connector-curvature="0" /><path
           d="m 327.90137,-66.146831 c -0.283,0 -0.529,0.092 -0.732,0.286 -0.209,0.191 -0.311,0.459 -0.311,0.8 0,0.291 0.096,0.542 0.291,0.753 0.198,0.208 0.442,0.311 0.731,0.311 0.285,0 0.533,-0.103 0.732,-0.311 0.205,-0.204 0.307,-0.46 0.307,-0.753 0,-0.337 -0.102,-0.604 -0.307,-0.798 -0.199,-0.191 -0.437,-0.288 -0.711,-0.288"
           style="fill:#9c8a83;fill-opacity:1;fill-rule:nonzero;stroke:none"
           id="path58"
           inkscape:connector-curvature="0" /><path
           d="m 336.18537,-62.176831 c 0,0.795 -0.168,1.418 -0.506,1.861 -0.336,0.442 -0.785,0.666 -1.354,0.666 -0.365,0 -0.683,-0.099 -0.965,-0.298 -0.281,-0.201 -0.494,-0.493 -0.644,-0.879 -0.151,-0.382 -0.227,-0.832 -0.227,-1.35 0,-0.511 0.073,-0.956 0.221,-1.337 0.154,-0.382 0.363,-0.675 0.641,-0.878 0.275,-0.202 0.601,-0.302 0.974,-0.302 0.569,0 1.018,0.222 1.354,0.667 0.338,0.446 0.506,1.065 0.506,1.85 m 1.882,0 c 0,-0.579 -0.086,-1.115 -0.261,-1.611 -0.176,-0.489 -0.424,-0.913 -0.756,-1.267 -0.332,-0.354 -0.721,-0.617 -1.18,-0.811 -0.455,-0.189 -0.971,-0.281 -1.545,-0.281 -0.564,0 -1.076,0.092 -1.527,0.286 -0.453,0.191 -0.844,0.464 -1.176,0.821 -0.336,0.356 -0.586,0.773 -0.76,1.257 -0.168,0.489 -0.254,1.021 -0.254,1.61 0,0.592 0.086,1.133 0.262,1.623 0.176,0.495 0.422,0.911 0.744,1.263 0.324,0.347 0.719,0.616 1.184,0.803 0.461,0.19 0.967,0.285 1.527,0.285 0.569,0 1.082,-0.095 1.545,-0.287 0.465,-0.19 0.86,-0.465 1.19,-0.817 0.326,-0.353 0.576,-0.776 0.75,-1.264 0.171,-0.485 0.257,-1.022 0.257,-1.61"
           style="fill:#9c8a83;fill-opacity:1;fill-rule:nonzero;stroke:none"
           id="path60"
           inkscape:connector-curvature="0" /><path
           d="m 341.40337,-63.328831 0,-1.628 c 0,-0.397 -0.09,-0.696 -0.267,-0.896 -0.176,-0.193 -0.405,-0.294 -0.678,-0.294 -0.273,0 -0.492,0.104 -0.668,0.3 -0.176,0.2 -0.26,0.496 -0.26,0.89 l 0,5.441 c 0,0.879 0.307,1.317 0.912,1.317 0.313,0 0.536,-0.103 0.67,-0.306 0.137,-0.206 0.217,-0.51 0.233,-0.91 0.22,0.4 0.449,0.704 0.685,0.91 0.237,0.203 0.551,0.306 0.942,0.306 0.4,0 0.781,-0.103 1.148,-0.306 0.371,-0.206 0.557,-0.479 0.557,-0.818 0,-0.237 -0.08,-0.438 -0.235,-0.591 -0.162,-0.154 -0.328,-0.235 -0.515,-0.235 -0.067,0 -0.231,0.046 -0.494,0.136 -0.264,0.087 -0.496,0.133 -0.7,0.133 -0.271,0 -0.496,-0.072 -0.673,-0.227 -0.172,-0.152 -0.305,-0.372 -0.405,-0.668 -0.092,-0.3 -0.16,-0.65 -0.195,-1.059 -0.037,-0.406 -0.057,-0.903 -0.057,-1.495"
           style="fill:#9c8a83;fill-opacity:1;fill-rule:nonzero;stroke:none"
           id="path62"
           inkscape:connector-curvature="0" /><path
           d="m 346.81237,-62.108831 c 0,-0.792 0.168,-1.391 0.5,-1.8 0.328,-0.402 0.761,-0.607 1.283,-0.607 0.308,0 0.607,0.09 0.883,0.264 0.277,0.175 0.503,0.437 0.675,0.788 0.178,0.352 0.262,0.776 0.262,1.277 0,0.797 -0.17,1.416 -0.506,1.86 -0.334,0.447 -0.777,0.671 -1.326,0.671 -0.533,0 -0.963,-0.218 -1.285,-0.64 -0.324,-0.427 -0.486,-1.03 -0.486,-1.813 m 5.429,2.48 0,-5.682 c 0,-0.651 -0.07,-1.209 -0.199,-1.675 -0.133,-0.47 -0.346,-0.856 -0.639,-1.161 -0.293,-0.305 -0.677,-0.531 -1.148,-0.68 -0.473,-0.145 -1.065,-0.22 -1.768,-0.22 -0.646,0 -1.224,0.092 -1.728,0.279 -0.51,0.193 -0.903,0.434 -1.176,0.734 -0.273,0.296 -0.412,0.603 -0.412,0.92 0,0.241 0.076,0.433 0.236,0.582 0.153,0.156 0.342,0.23 0.561,0.23 0.275,0 0.512,-0.128 0.72,-0.38 0.102,-0.133 0.208,-0.261 0.313,-0.391 0.107,-0.131 0.227,-0.247 0.355,-0.338 0.133,-0.094 0.291,-0.164 0.473,-0.209 0.18,-0.045 0.393,-0.069 0.633,-0.069 0.48,0 0.859,0.072 1.127,0.212 0.267,0.14 0.455,0.337 0.564,0.59 0.104,0.253 0.172,0.523 0.182,0.812 0.023,0.294 0.035,0.754 0.049,1.396 -0.287,-0.42 -0.627,-0.739 -1,-0.958 -0.377,-0.222 -0.828,-0.328 -1.346,-0.328 -0.633,0 -1.18,0.165 -1.644,0.501 -0.473,0.333 -0.834,0.8 -1.084,1.403 -0.248,0.601 -0.377,1.295 -0.377,2.083 0,0.591 0.074,1.121 0.232,1.595 0.148,0.469 0.365,0.868 0.654,1.193 0.282,0.325 0.61,0.571 0.979,0.737 0.373,0.162 0.775,0.247 1.224,0.247 0.528,0 0.987,-0.109 1.375,-0.323 0.395,-0.21 0.75,-0.547 1.086,-0.997 l 0,0.261 c 0,0.342 0.084,0.603 0.241,0.794 0.16,0.184 0.367,0.278 0.617,0.278 0.363,0 0.601,-0.122 0.722,-0.369 0.12,-0.245 0.178,-0.604 0.178,-1.067"
           style="fill:#9c8a83;fill-opacity:1;fill-rule:nonzero;stroke:none"
           id="path64"
           inkscape:connector-curvature="0" /><g
           id="g4260"
           transform="translate(1.1281826,-23.691834)"><path
             inkscape:connector-curvature="0"
             id="path70"
             style="fill:#e8f6ff;fill-opacity:1;fill-rule:evenodd;stroke:none"
             d="m 250.594,477.824 c 120.366,0 217.941,-97.576 217.941,-217.942 0,-77.14 -40.078,-144.919 -100.549,-183.652 l -234.783,0 C 72.733,114.963 32.654,182.742 32.654,259.882 c 0,120.366 97.576,217.942 217.94,217.942" /><path
             inkscape:connector-curvature="0"
             id="path74"
             style="fill:#716864;fill-opacity:1;fill-rule:evenodd;stroke:none"
             d="m 126.245,187.128 c 6.672,0 13.091,-7.663 14.338,-17.114 1.248,-9.452 -3.15,-17.115 -9.822,-17.115 -6.673,0 -13.092,7.663 -14.339,17.115 -1.247,9.451 3.151,17.114 9.823,17.114" /><path
             inkscape:connector-curvature="0"
             id="path72"
             style="fill:#332d2a;fill-opacity:1;fill-rule:evenodd;stroke:none"
             d="m 113.655,278.04 28.194,0 0,-91.413 c 0,-7.753 -6.344,-14.097 -14.098,-14.097 -7.753,0 -14.096,6.344 -14.096,14.097 l 0,91.413 z" /><path
             inkscape:connector-curvature="0"
             id="path78"
             style="fill:#716864;fill-opacity:1;fill-rule:evenodd;stroke:none"
             d="m 161.686,187.128 c -6.672,0 -13.09,-7.663 -14.337,-17.114 -1.248,-9.452 3.151,-17.115 9.823,-17.115 6.672,0 13.092,7.663 14.337,17.115 1.248,9.451 -3.15,17.114 -9.823,17.114" /><path
             inkscape:connector-curvature="0"
             id="path76"
             style="fill:#332d2a;fill-opacity:1;fill-rule:evenodd;stroke:none"
             d="m 174.277,278.04 -28.193,0 0,-91.413 c 0,-7.753 6.343,-14.097 14.096,-14.097 7.754,0 14.097,6.344 14.097,14.097 l 0,91.413 z" /><path
             inkscape:connector-curvature="0"
             id="path80"
             style="fill:#332d2a;fill-opacity:1;fill-rule:evenodd;stroke:none"
             d="m 137.239,301.624 13.454,0 c 12.972,0 23.584,-10.613 23.584,-23.584 0,-12.972 -10.612,-23.584 -23.584,-23.584 l -13.454,0 c -12.971,0 -23.584,10.612 -23.584,23.584 0,12.971 10.613,23.584 23.584,23.584" /><path
             inkscape:connector-curvature="0"
             id="path82"
             style="fill:#738694;fill-opacity:1;fill-rule:evenodd;stroke:none"
             d="m 264.477,408.064 -196.358,0 c -4.23,0 -7.689,-3.46 -7.689,-7.689 0,-4.229 3.459,-7.689 7.689,-7.689 l 196.358,0 c 4.23,0 7.689,3.46 7.689,7.689 0,4.229 -3.459,7.689 -7.689,7.689" /><path
             inkscape:connector-curvature="0"
             id="path84"
             style="fill:#c8dceb;fill-opacity:1;fill-rule:evenodd;stroke:none"
             d="m 243.423,388.397 0.001,0 c 2.86,0 5.2,-2.34 5.2,-5.199 l 0,-86.818 c 0,-2.86 -2.34,-5.201 -5.2,-5.201 l -0.001,0 c -2.86,0 -5.2,2.341 -5.2,5.201 l 0,86.818 c 0,2.859 2.34,5.199 5.2,5.199" /><path
             inkscape:connector-curvature="0"
             id="path86"
             style="fill:#76828b;fill-opacity:1;fill-rule:evenodd;stroke:none"
             d="m 258.652,68.94 c 116.933,0 212.304,3.275 212.304,7.29 0,4.017 -95.371,7.291 -212.304,7.291 -116.932,0 -212.303,-3.274 -212.303,-7.291 0,-4.015 95.371,-7.29 212.303,-7.29" /><path
             inkscape:connector-curvature="0"
             id="path88"
             style="fill:#738694;fill-opacity:1;fill-rule:evenodd;stroke:none"
             d="m 272.166,353.996 17.33,0 0,48.417 -17.33,0 0,-48.417 z" /><path
             inkscape:connector-curvature="0"
             id="path90"
             style="fill:#b6cad9;fill-opacity:1;fill-rule:evenodd;stroke:none"
             d="m 226.934,303.795 82.056,0 0,13.761 -82.056,0 0,-13.761 z" /><path
             inkscape:connector-curvature="0"
             id="path92"
             style="fill:#8fa2b0;fill-opacity:1;fill-rule:evenodd;stroke:none"
             d="m 232.921,76.23 70.08,0 0,227.564 -70.08,0 0,-227.564 z" /><path
             inkscape:connector-curvature="0"
             id="path94"
             style="fill:#738694;fill-opacity:1;fill-rule:evenodd;stroke:none"
             d="m 232.922,303.795 70.079,0 0,-26.646 c -9.054,8.807 -21.002,14.141 -33.725,14.934 -13.161,0.817 -26.105,-3.289 -36.354,-11.438 l 0,23.15 z" /><path
             inkscape:connector-curvature="0"
             id="path96"
             style="fill:#8fa2b0;fill-opacity:1;fill-rule:evenodd;stroke:none"
             d="m 258.661,317.556 44.34,0 0,48.417 -44.34,0 0,-48.417 z" /><path
             inkscape:connector-curvature="0"
             id="path98"
             style="fill:#8fa2b0;fill-opacity:1;fill-rule:evenodd;stroke:none"
             d="m 280.83,378.205 c 12.212,0 22.171,9.959 22.171,22.17 0,12.211 -9.959,22.17 -22.171,22.17 -12.21,0 -22.169,-9.959 -22.169,-22.17 0,-12.211 9.959,-22.17 22.169,-22.17" /><path
             inkscape:connector-curvature="0"
             id="path100"
             style="fill:#b6cad9;fill-opacity:1;fill-rule:evenodd;stroke:none"
             d="m 280.83,389.672 c 5.896,0 10.703,4.808 10.703,10.703 0,5.895 -4.807,10.703 -10.703,10.703 -5.893,0 -10.702,-4.808 -10.702,-10.703 0,-5.895 4.809,-10.703 10.702,-10.703" /><path
             inkscape:connector-curvature="0"
             id="path102"
             style="fill:#596b78;fill-opacity:1;fill-rule:evenodd;stroke:none"
             d="m 243.423,416.812 0.001,0 c 4.292,0 7.803,-3.512 7.803,-7.804 l 0,-28.734 c 0,-4.292 -3.511,-7.803 -7.803,-7.803 l -0.001,0 c -4.293,0 -7.804,3.511 -7.804,7.803 l 0,28.734 c 0,4.292 3.511,7.804 7.804,7.804" /><path
             inkscape:connector-curvature="0"
             id="path104"
             style="fill:#b6cad9;fill-opacity:1;fill-rule:evenodd;stroke:none"
             d="m 303.001,350.873 55.655,0 c 9.954,0 18.97,-4.037 25.493,-10.562 6.527,-6.525 10.563,-15.539 10.563,-25.495 l -18.216,0 c 0,4.927 -1.997,9.388 -5.225,12.615 -3.227,3.228 -7.688,5.224 -12.615,5.224 l -55.655,0 c -6.072,0 -6.072,18.218 0,18.218" /><path
             inkscape:connector-curvature="0"
             id="path106"
             style="fill:#c8dceb;fill-opacity:1;fill-rule:evenodd;stroke:none"
             d="m 375.101,315.445 21.931,0 0,-14.581 -21.931,0 0,14.581 z" /><path
             inkscape:connector-curvature="0"
             id="path108"
             style="fill:#b6ddfa;fill-opacity:1;fill-rule:evenodd;stroke:none"
             d="m 330.285,224.15 111.562,0 -10.258,-147.92 -91.045,0 -10.259,147.92 z" /><path
             inkscape:connector-curvature="0"
             id="path110"
             style="fill:#e86625;fill-opacity:1;fill-rule:evenodd;stroke:none"
             d="m 137.869,344.404 12.194,0 c 13.316,0 24.208,-10.893 24.208,-24.208 l 0,-0.001 c 0,-13.315 -10.892,-24.208 -24.208,-24.208 l -12.194,0 c -13.315,0 -24.208,10.893 -24.208,24.208 l 0,0.001 c 0,13.315 10.893,24.208 24.208,24.208" /><path
             inkscape:connector-curvature="0"
             id="path112"
             style="fill:#e86625;fill-opacity:1;fill-rule:evenodd;stroke:none"
             d="m 113.66,320.195 20.634,0 0,72.491 -20.634,0 0,-72.491 z" /><path
             inkscape:connector-curvature="0"
             id="path114"
             style="fill:#f5b290;fill-opacity:1;fill-rule:evenodd;stroke:none"
             d="m 126.558,384.34 c 7.765,0 14.099,6.334 14.099,14.1 0,7.767 -6.334,14.101 -14.099,14.101 -7.766,0 -14.101,-6.334 -14.101,-14.101 0,-7.766 6.335,-14.1 14.101,-14.1" /><path
             inkscape:connector-curvature="0"
             id="path116"
             style="fill:#e86625;fill-opacity:1;fill-rule:evenodd;stroke:none"
             d="m 153.506,320.195 20.634,0 0,72.491 -20.634,0 0,-72.491 z" /><path
             inkscape:connector-curvature="0"
             id="path118"
             style="fill:#f5b290;fill-opacity:1;fill-rule:evenodd;stroke:none"
             d="m 161.244,384.34 c 7.766,0 14.1,6.334 14.1,14.1 0,7.767 -6.334,14.101 -14.1,14.101 -7.766,0 -14.099,-6.334 -14.099,-14.101 0,-7.766 6.333,-14.1 14.099,-14.1" /><path
             sodipodi:nodetypes="csssssssc"
             inkscape:connector-curvature="0"
             id="path120"
             style="fill:#e86625;fill-opacity:1;fill-rule:evenodd;stroke:none"
             d="m 143.966,334.328 0.001,0 c 12.281,0 22.331,-10.049 22.331,-22.331 l 0,-16.403 c 0,-12.283 -10.05,-16.04531 -22.331,-16.04531 l -0.001,0 c -12.283,0 -22.332,3.76231 -22.332,16.04531 l 0,16.403 c 0,12.282 10.049,22.331 22.332,22.331" /><path
             inkscape:connector-curvature="0"
             id="path122"
             style="fill:#398ccc;fill-opacity:1;fill-rule:evenodd;stroke:none"
             d="m 397.938,278.213 c 7.586,-4.276 12.336,-12.29 12.336,-21.098 0,-13.372 -10.838,-24.211 -24.209,-24.211 -13.369,0 -24.208,10.839 -24.208,24.211 0,8.808 4.751,16.822 12.336,21.098 5.737,4.016 9.474,8.662 11.872,14.715 2.4,-6.053 6.136,-10.699 11.873,-14.715" /><path
             inkscape:connector-curvature="0"
             id="path124"
             style="fill:#f29d72;fill-opacity:1;fill-rule:evenodd;stroke:none"
             d="m 157.401,352.627 c -1.293,0 -2.544,-2.135 -2.796,-4.77 -0.249,-2.634 0.597,-4.77 1.891,-4.77 1.295,0 2.546,2.136 2.795,4.77 0.251,2.635 -0.595,4.77 -1.89,4.77 m -26.871,0 c 1.294,0 2.545,-2.135 2.795,-4.77 0.251,-2.634 -0.596,-4.77 -1.889,-4.77 -1.293,0 -2.546,2.136 -2.796,4.77 -0.249,2.635 0.596,4.77 1.89,4.77" /><path
             inkscape:connector-curvature="0"
             id="path126"
             style="fill:#f5b290;fill-opacity:1;fill-rule:evenodd;stroke:none"
             d="m 130.909,364.247 26.114,0 0,-20.902 c 0,-7.181 -5.875,-13.058 -13.057,-13.058 -7.181,0 -13.057,5.877 -13.057,13.058 l 0,20.902 z" /><path
             inkscape:connector-curvature="0"
             id="path128"
             style="fill:#ffffff;fill-opacity:1;fill-rule:evenodd;stroke:none"
             d="m 149.691,336.422 c -0.406,-2.791 -2.825,-4.952 -5.725,-4.952 -2.9,0 -5.319,2.161 -5.726,4.952 l 11.451,0 z" /><path
             inkscape:connector-curvature="0"
             id="path130"
             style="fill:#332d2a;fill-opacity:1;fill-rule:evenodd;stroke:none"
             d="m 157.023,348.127 2.139,13.057 c 0.334,2.046 -0.183,4.139 -1.431,5.794 -1.249,1.655 -3.12,2.726 -5.18,2.965 l -0.806,0.591 c -1.772,1.301 -3.925,1.98 -6.124,1.934 -4.417,-0.093 -8.804,-0.743 -13.058,-1.934 -3.785,-1.06 -5.176,-4.986 -4.518,-8.57 l 2.864,-15.61 1.179,5.982 4.398,0.143 c 6.602,0.216 13.107,1.655 19.183,4.246 l 1.354,-8.598 z" /><path
             inkscape:connector-curvature="0"
             id="path132"
             style="fill:#ffffff;fill-opacity:1;fill-rule:evenodd;stroke:none"
             d="m 368.067,161.059 0.74,-32.033 -20.012,0 -2.221,32.033 21.493,0 z m -24.192,38.906 23.296,0 0.497,-21.555 -22.297,0 -1.496,21.555 z" /></g></g></g></g></svg>